HIERARCHY
ROOT root
{
    OFFSET 0.000000 0.000000 0.000000
    CHANNELS 6 Xposition Yposition Zposition Zrotation Xrotation Yrotation
}
MOTION
Frames:    95
Frame Time:    0.010000
17.254049    166.079224    -102.368675    -17.975569    6.953963    -56.951733    
17.254049    166.079224    -102.368675    -17.975586    6.953990    -56.951702    
17.282185    166.071121    -102.370453    -17.921022    7.001213    -56.901649    
17.301218    166.071457    -102.343384    -18.003513    7.034558    -56.891407    
17.319496    166.072647    -102.324211    -17.960863    6.997289    -56.937237    
17.319496    166.072647    -102.324211    -17.960854    6.997244    -56.937233    
17.322531    166.078918    -102.331627    -17.968948    7.083911    -56.922573    
17.352335    166.058792    -102.331253    -18.066208    7.118453    -56.835804    
17.368530    166.057098    -102.324760    -18.013226    7.179883    -56.794212    
17.384457    166.051422    -102.308235    -17.995363    7.094020    -56.868820    
17.397360    166.045654    -102.274979    -18.018305    7.139855    -56.901093    
17.395395    166.034363    -102.246307    -18.061787    7.194506    -56.949657    
17.400053    166.031754    -102.224579    -18.045450    7.169621    -57.014576    
17.408983    166.030136    -102.230164    -18.022831    7.164794    -56.963047    
17.434544    166.032394    -102.189423    -18.060972    7.169765    -56.899967    
17.437807    166.040985    -102.179543    -18.013393    7.142291    -56.923752    
17.462774    166.035614    -102.147461    -17.987597    7.063932    -56.907063    
17.477766    166.036163    -102.111244    -17.980362    6.986244    -57.016106    
17.497934    166.027740    -102.091492    -18.070210    7.056081    -56.858433    
17.495138    166.009460    -102.069489    -18.155201    7.180309    -56.893459    
17.530565    166.018158    -102.050713    -18.176208    7.076765    -56.837070    
17.553806    166.008621    -102.044121    -18.247688    7.234608    -56.824047    
17.587938    166.005646    -102.006866    -18.284042    7.227353    -56.786976    
17.603951    165.993057    -101.979507    -18.253117    7.360693    -56.860851    
17.603951    165.987473    -101.962814    -18.283068    7.453800    -56.835983    
17.638010    165.973846    -101.914825    -18.183748    7.477722    -56.891914    
17.675438    165.972610    -101.898727    -18.145908    7.351834    -56.676697    
17.687489    165.946777    -101.850220    -18.251787    7.491057    -56.671539    
17.693743    165.914719    -101.846565    -18.323927    7.237258    -56.734684    
17.716717    165.898209    -101.841438    -18.419893    7.327246    -56.651356    
17.716717    165.898209    -101.841438    -18.419930    7.327212    -56.651360    
17.759768    165.898849    -101.823631    -18.375658    7.202314    -56.602501    
17.783527    165.904251    -101.790680    -18.320660    7.108072    -56.680538    
17.792208    165.912949    -101.747559    -18.378050    7.086194    -56.633335    
17.797132    165.922867    -101.716652    -18.391447    7.152188    -56.701641    
17.811182    165.917130    -101.712883    -18.411488    7.269653    -56.730717    
17.827732    165.918289    -101.715294    -18.379599    7.179177    -56.752560    
17.859568    165.922180    -101.705482    -18.380514    7.104086    -56.706337    
17.887596    165.905869    -101.665459    -18.344942    7.265745    -56.866535    
17.902412    165.903503    -101.616463    -18.377281    7.274102    -56.945545    
17.923536    165.903564    -101.621536    -18.355682    7.320375    -56.947086    
17.936413    165.910980    -101.635551    -18.395195    7.245703    -56.888020    
17.940722    165.925461    -101.630379    -18.378658    7.172064    -56.873653    
17.956751    165.926193    -101.616837    -18.392653    7.147655    -56.882057    
17.985111    165.908005    -101.596596    -18.355089    7.208453    -56.887886    
17.981867    165.905136    -101.578011    -18.364298    7.257173    -56.939201    
17.989397    165.893524    -101.552498    -18.389502    7.283232    -56.996822    
18.035236    165.877945    -101.526535    -18.339392    7.326053    -56.993553    
18.062454    165.890747    -101.517067    -18.303972    7.264893    -56.829952    
18.093189    165.885330    -101.515755    -18.377493    7.217498    -56.820053    
18.129541    165.886230    -101.477707    -18.299284    7.218272    -56.958855    
18.130568    165.870560    -101.450241    -18.385223    7.299532    -56.934826    
18.153688    165.884964    -101.440361    -18.401278    7.269402    -56.801060    
18.209999    165.893478    -101.391853    -18.347908    7.124697    -56.789127    
18.205923    165.892090    -101.368675    -18.328396    7.322823    -56.883610    
18.212818    165.880875    -101.338890    -18.355640    7.369808    -56.975552    
18.237377    165.872406    -101.310135    -18.300919    7.473495    -56.940708    
18.260975    165.869156    -101.296524    -18.459925    7.413753    -56.873993    
18.264221    165.858429    -101.265144    -18.504612    7.557114    -56.933479    
18.284985    165.857483    -101.263023    -18.471222    7.668207    -56.886456    
18.312613    165.859085    -101.230492    -18.480415    7.755276    -56.863361    
18.321852    165.861832    -101.216904    -18.512234    7.744433    -56.812923    
18.330288    165.859482    -101.174759    -18.540274    7.960624    -56.855736    
18.384867    165.851639    -101.138596    -18.620218    7.902396    -56.699577    
18.391787    165.858261    -101.127731    -18.583191    7.923433    -56.725044    
18.393221    165.847610    -101.105591    -18.628424    8.028991    -56.763714    
18.408985    165.850647    -101.087440    -18.577297    7.982769    -56.812740    
18.423983    165.851517    -101.074791    -18.575041    8.010848    -56.728352    
18.433002    165.856476    -101.078949    -18.579153    7.962132    -56.557770    
18.434130    165.865051    -101.051056    -18.545223    8.009352    -56.614437    
18.432903    165.866058    -101.040924    -18.549168    8.082269    -56.634117    
18.432903    165.866058    -101.040924    -18.549189    8.082343    -56.634106    
18.432903    165.866058    -101.040924    -18.549156    8.082309    -56.634117    
18.444967    165.864166    -101.042160    -18.521521    8.071309    -56.592793    
18.450100    165.871017    -101.034752    -18.473349    8.026700    -56.623425    
18.445244    165.878296    -101.039101    -18.446135    8.001098    -56.625996    
18.467600    165.878754    -101.015640    -18.396017    7.957959    -56.681942    
18.464157    165.868073    -101.020340    -18.458475    8.014758    -56.652142    
18.480740    165.879898    -100.999107    -18.358984    7.923340    -56.724712    
18.494446    165.868881    -101.005684    -18.427446    7.962759    -56.631737    
18.478733    165.866318    -100.983238    -18.431715    8.063304    -56.739254    
18.492184    165.876785    -100.985840    -18.399130    8.030487    -56.727524    
18.490908    165.869217    -100.987923    -18.440865    8.068685    -56.709328    
18.501986    165.889832    -100.954674    -18.309357    8.021416    -56.823967    
18.508347    165.905991    -100.940598    -18.237614    8.030056    -56.940212    
18.526644    165.906143    -100.922516    -18.222166    7.962122    -56.871628    
18.534227    165.913315    -100.889038    -18.234066    7.968547    -56.951134    
18.546684    165.907410    -100.891434    -18.266827    7.980710    -56.868809    
18.564905    165.905457    -100.886009    -18.256561    8.006183    -56.798817    
18.582003    165.907684    -100.886391    -18.271177    8.006298    -56.807747    
18.595268    165.913635    -100.871803    -18.300457    8.119104    -56.804871    
18.603407    165.925735    -100.864090    -18.322300    8.057835    -56.794483    
18.601353    165.929001    -100.860893    -18.334787    8.136934    -56.873512    
18.607399    165.932480    -100.878754    -18.299047    8.083207    -56.824062    
18.618979    165.935425    -100.884926    -18.242451    8.072780    -56.887943    
